<?xml version="1.0"?>
<svg xmlns="http://www.w3.org/2000/svg" xmlns:xlink="http://www.w3.org/1999/xlink" version="1.1" id="Capa_1" x="0px" y="0px" viewBox="0 0 512 512" style="enable-background:new 0 0 512 512;" xml:space="preserve" width="512px" height="512px" class=""><g><g>
	<g>
		<g>
			<circle cx="170.667" cy="234.667" r="21.333" data-original="#000000" class="active-path" data-old_color="#ff0000" fill="#ff0000"/>
			<circle cx="341.333" cy="234.667" r="21.333" data-original="#000000" class="active-path" data-old_color="#ff0000" fill="#ff0000"/>
			<path d="M256,0C114.844,0,0,114.844,0,256s114.844,256,256,256s256-114.844,256-256S397.156,0,256,0z M256,490.667     C126.604,490.667,21.333,385.396,21.333,256c0-82.915,43.341-155.754,108.44-197.507c-2.539,4.112-2.215,9.482,1.352,13.048     l21.333,21.333C154.542,94.958,157.271,96,160,96s5.458-1.042,7.542-3.125l21.333-21.333c4.167-4.167,4.167-10.917,0-15.083     c-4.167-4.167-10.917-4.167-15.083,0L160,70.25l-13.792-13.792c-2.24-2.24-5.214-3.174-8.143-3.008     C172.767,33.164,212.984,21.333,256,21.333c129.396,0,234.667,105.271,234.667,234.667S385.396,490.667,256,490.667z" data-original="#000000" class="active-path" data-old_color="#ff0000" fill="#ff0000"/>
			<path d="M352,362.667c-13.344,0-20.094,8.979-24.563,14.927c-4.042,5.385-5.24,6.406-7.5,6.406s-3.458-1.021-7.5-6.406     c-4.469-5.948-11.219-14.927-24.563-14.927s-20.083,8.99-24.542,14.938c-4.042,5.375-5.229,6.396-7.469,6.396     c-2.229,0-3.406-1.01-7.427-6.396c-4.458-5.948-11.188-14.938-24.51-14.938c-13.333,0-20.063,8.99-24.521,14.938     c-4.042,5.375-5.219,6.396-7.458,6.396c-2.229,0-3.417-1.021-7.438-6.396c-4.458-5.948-11.188-14.938-24.51-14.938     c-5.896,0-10.667,4.771-10.667,10.667c0,5.896,4.771,10.667,10.667,10.667c2.229,0,3.406,1.01,7.427,6.385     c4.458,5.958,11.188,14.948,24.521,14.948c13.333,0,20.063-8.99,24.521-14.938c4.042-5.375,5.219-6.396,7.458-6.396     c2.229,0,3.406,1.01,7.427,6.396c4.458,5.948,11.188,14.938,24.51,14.938c13.333,0,20.073-8.979,24.531-14.927     c4.042-5.385,5.229-6.406,7.479-6.406c2.26,0,3.458,1.021,7.5,6.406c4.469,5.948,11.219,14.927,24.563,14.927     s20.094-8.979,24.563-14.927c4.042-5.385,5.24-6.406,7.5-6.406c5.896,0,10.667-4.771,10.667-10.667     C362.667,367.438,357.896,362.667,352,362.667z" data-original="#000000" class="active-path" data-old_color="#ff0000" fill="#ff0000"/>
			<path d="M173.792,178.208c2.083,2.083,4.813,3.125,7.542,3.125c2.729,0,5.458-1.042,7.542-3.125     c4.167-4.167,4.167-10.917,0-15.083l-21.333-21.333c-4.167-4.167-10.917-4.167-15.083,0l-21.333,21.333     c-4.167,4.167-4.167,10.917,0,15.083c4.167,4.167,10.917,4.167,15.083,0L160,164.417L173.792,178.208z" data-original="#000000" class="active-path" data-old_color="#ff0000" fill="#ff0000"/>
			<path d="M135.542,109.792l-21.333-21.333c-4.167-4.167-10.917-4.167-15.083,0c-4.167,4.167-4.167,10.917,0,15.083l13.792,13.792     l-13.792,13.792c-4.167,4.167-4.167,10.917,0,15.083c2.083,2.083,4.813,3.125,7.542,3.125c2.729,0,5.458-1.042,7.542-3.125     l21.333-21.333C139.708,120.708,139.708,113.958,135.542,109.792z" data-original="#000000" class="active-path" data-old_color="#ff0000" fill="#ff0000"/>
			<path d="M205.792,146.208c2.083,2.083,4.813,3.125,7.542,3.125c2.729,0,5.458-1.042,7.542-3.125     c4.167-4.167,4.167-10.917,0-15.083l-13.792-13.792l13.792-13.792c4.167-4.167,4.167-10.917,0-15.083     c-4.167-4.167-10.917-4.167-15.083,0l-21.333,21.333c-4.167,4.167-4.167,10.917,0,15.083L205.792,146.208z" data-original="#000000" class="active-path" data-old_color="#ff0000" fill="#ff0000"/>
		</g>
	</g>
</g></g> </svg>
